<?xml version="1.0" encoding="UTF-8"?><svg xmlns="http://www.w3.org/2000/svg" xmlns:xlink="http://www.w3.org/1999/xlink" viewBox="0 0 145.11 66.43"><defs><style>.cls-1{filter:url(#luminosity-noclip-11);}.cls-2{mask:url(#mask-10);}.cls-3{fill:url(#linear-gradient-12);}.cls-3,.cls-4,.cls-5,.cls-6,.cls-7,.cls-8,.cls-9,.cls-10,.cls-11,.cls-12,.cls-13,.cls-14,.cls-15,.cls-16,.cls-17,.cls-18,.cls-19,.cls-20,.cls-21,.cls-22,.cls-23,.cls-24,.cls-25{stroke-width:0px;}.cls-3,.cls-5,.cls-6,.cls-8,.cls-9,.cls-11,.cls-12,.cls-14,.cls-16,.cls-17,.cls-18,.cls-19,.cls-22,.cls-23{mix-blend-mode:multiply;}.cls-26{filter:url(#luminosity-noclip-7);}.cls-4{fill:#16680b;}.cls-27{filter:url(#luminosity-noclip-13);}.cls-28{filter:url(#luminosity-noclip-5);}.cls-5{fill:url(#linear-gradient-15);}.cls-29{mask:url(#mask-2);}.cls-6{fill:url(#linear-gradient-11);}.cls-30{isolation:isolate;}.cls-31{mask:url(#mask-13);}.cls-8{fill:url(#linear-gradient-14);}.cls-32{mask:url(#mask-3);}.cls-9{fill:url(#linear-gradient-5);}.cls-33{filter:url(#luminosity-noclip-15);}.cls-10{fill:none;}.cls-11{fill:url(#linear-gradient-9);}.cls-34{mask:url(#mask-9);}.cls-12{fill:url(#linear-gradient-4);}.cls-35{mask:url(#mask-12);}.cls-36{mask:url(#mask-5);}.cls-37{filter:url(#luminosity-noclip-9);}.cls-38{mask:url(#mask-8);}.cls-13{fill:url(#radial-gradient-2);}.cls-39{mask:url(#mask-4);}.cls-14{fill:url(#linear-gradient);}.cls-40{mask:url(#mask-15);}.cls-15{fill:url(#radial-gradient);}.cls-16{fill:url(#linear-gradient-10);}.cls-41{mask:url(#mask-6);}.cls-42{filter:url(#luminosity-noclip);}.cls-43{mask:url(#mask-1);}.cls-44{mask:url(#mask);}.cls-17{fill:url(#linear-gradient-2);}.cls-45{mask:url(#mask-7);}.cls-18{fill:url(#linear-gradient-3);}.cls-19{fill:url(#linear-gradient-7);}.cls-20{fill:url(#radial-gradient-3);}.cls-21{fill:url(#linear-gradient-16);}.cls-21,.cls-25{mix-blend-mode:overlay;}.cls-22{fill:url(#linear-gradient-6);}.cls-46{mask:url(#mask-14);}.cls-23{fill:url(#linear-gradient-13);}.cls-47{mask:url(#mask-11);}.cls-48{filter:url(#luminosity-noclip-3);}.cls-24{fill:url(#radial-gradient-4);}.cls-25{fill:url(#linear-gradient-8);}</style><radialGradient id="radial-gradient" cx="53.17" cy="28.79" fx="53.17" fy="28.79" r="23.53" gradientUnits="userSpaceOnUse"><stop offset="0" stop-color="#95c000"/><stop offset="1" stop-color="#446a00"/></radialGradient><filter id="luminosity-noclip" x="30.64" y="10.48" width="30.58" height="11.94" color-interpolation-filters="sRGB" filterUnits="userSpaceOnUse"><feFlood flood-color="#fff" result="bg"/><feBlend in="SourceGraphic" in2="bg"/></filter><filter id="luminosity-noclip-2" x="30.64" y="-8228.28" width="30.58" height="32766" color-interpolation-filters="sRGB" filterUnits="userSpaceOnUse"><feFlood flood-color="#fff" result="bg"/><feBlend in="SourceGraphic" in2="bg"/></filter><mask id="mask-1" x="30.64" y="-8228.28" width="30.58" height="32766" maskUnits="userSpaceOnUse"/><linearGradient id="linear-gradient" x1="45.1" y1=".3" x2="46.37" y2="26.3" gradientUnits="userSpaceOnUse"><stop offset="0" stop-color="#fff"/><stop offset="1" stop-color="#000"/></linearGradient><mask id="mask" x="30.64" y="10.48" width="30.58" height="11.94" maskUnits="userSpaceOnUse"><g class="cls-42"><g class="cls-43"><path class="cls-14" d="m43.68,17.17c-1.19,1.02-1.19,1.78-1.19,1.78,0,0,5.67,2.16,14.9-.3,1.33,2.05,1.04,4.12,3.82,3.71-1.72-3.05-10.13-15.51-30.25-10.86-.25.46-.33.75-.33.75,3.9,6.35,10.92,5.76,13.04,4.91Z"/></g></g></mask><linearGradient id="linear-gradient-2" x1="45.1" y1=".3" x2="46.37" y2="26.3" gradientUnits="userSpaceOnUse"><stop offset="0" stop-color="#005d00"/><stop offset="1" stop-color="#ffffde"/></linearGradient><filter id="luminosity-noclip-3" x="30.64" y="5.06" width="27.39" height="12.29" color-interpolation-filters="sRGB" filterUnits="userSpaceOnUse"><feFlood flood-color="#fff" result="bg"/><feBlend in="SourceGraphic" in2="bg"/></filter><filter id="luminosity-noclip-4" x="30.64" y="-8228.28" width="27.39" height="32766" color-interpolation-filters="sRGB" filterUnits="userSpaceOnUse"><feFlood flood-color="#fff" result="bg"/><feBlend in="SourceGraphic" in2="bg"/></filter><mask id="mask-3" x="30.64" y="-8228.28" width="27.39" height="32766" maskUnits="userSpaceOnUse"/><linearGradient id="linear-gradient-3" x1="39.86" y1="7.31" x2="51.42" y2="23.51" xlink:href="#linear-gradient"/><mask id="mask-2" x="30.64" y="5.06" width="27.39" height="12.29" maskUnits="userSpaceOnUse"><g class="cls-48"><g class="cls-32"><path class="cls-18" d="m46.45,5.06c-13.92.35-15.81,7.2-15.81,7.2,1.88,3.06,4.48,4.51,6.91,5.09,4.04-6.96,16.47-7.84,20.47-2.51-2.98-4.14-6.95-7.52-11.58-9.79Z"/></g></g></mask><linearGradient id="linear-gradient-4" x1="39.86" y1="7.31" x2="51.42" y2="23.51" xlink:href="#linear-gradient-2"/><radialGradient id="radial-gradient-2" cx="8.79" cy="19.2" fx="8.79" fy="19.2" r="43.06" gradientUnits="userSpaceOnUse"><stop offset="0" stop-color="#badc00"/><stop offset="1" stop-color="#95c000"/></radialGradient><filter id="luminosity-noclip-5" x="4.07" y="3.86" width="51.12" height="18.77" color-interpolation-filters="sRGB" filterUnits="userSpaceOnUse"><feFlood flood-color="#fff" result="bg"/><feBlend in="SourceGraphic" in2="bg"/></filter><filter id="luminosity-noclip-6" x="4.07" y="-8228.28" width="51.12" height="32766" color-interpolation-filters="sRGB" filterUnits="userSpaceOnUse"><feFlood flood-color="#fff" result="bg"/><feBlend in="SourceGraphic" in2="bg"/></filter><mask id="mask-5" x="4.07" y="-8228.28" width="51.12" height="32766" maskUnits="userSpaceOnUse"/><linearGradient id="linear-gradient-5" x1="27.15" y1="-11.2" x2="30.45" y2="25.13" xlink:href="#linear-gradient"/><mask id="mask-4" x="4.07" y="3.86" width="51.12" height="18.77" maskUnits="userSpaceOnUse"><g class="cls-28"><g class="cls-36"><path class="cls-9" d="m24.47,19.3c-.12,1.22.2,1.6.2,1.6,0,0,6.86-2.41,10.8-7.37.25.95.89,1.52.89,1.52,0,0,11.26-7.2,18.83-3.61-2.83-2.94-6.23-5.33-10.02-6.98C32.1.99,18.36,13.32,4.07,20.89c9.04,2.87,15.32,2.09,20.4-1.59Z"/></g></g></mask><linearGradient id="linear-gradient-6" x1="27.15" y1="-11.2" x2="30.45" y2="25.13" xlink:href="#linear-gradient-2"/><filter id="luminosity-noclip-7" x="4.07" y="10.07" width="51.12" height="12.56" color-interpolation-filters="sRGB" filterUnits="userSpaceOnUse"><feFlood flood-color="#fff" result="bg"/><feBlend in="SourceGraphic" in2="bg"/></filter><filter id="luminosity-noclip-8" x="4.07" y="-8228.28" width="51.12" height="32766" color-interpolation-filters="sRGB" filterUnits="userSpaceOnUse"><feFlood flood-color="#fff" result="bg"/><feBlend in="SourceGraphic" in2="bg"/></filter><mask id="mask-7" x="4.07" y="-8228.28" width="51.12" height="32766" maskUnits="userSpaceOnUse"/><linearGradient id="linear-gradient-7" x1="39.71" y1="31.57" x2="22.43" y2="5.15" xlink:href="#linear-gradient"/><mask id="mask-6" x="4.07" y="10.07" width="51.12" height="12.56" maskUnits="userSpaceOnUse"><g class="cls-26"><g class="cls-45"><path class="cls-19" d="m36.49,14.63s-.63-.57-.89-1.52c-3.94,4.95-10.8,7.37-10.8,7.37,0,0-.32-.38-.2-1.6-5.07,3.68-10.53,4.85-20.52,2.01,9.04,2.87,15.32,2.09,20.4-1.59-.12,1.22.2,1.6.2,1.6,0,0,6.86-2.41,10.8-7.37.25.95.89,1.52.89,1.52,0,0,11.26-7.2,18.83-3.61-6.56-4.4-18.71,3.19-18.71,3.19Z"/></g></g></mask><linearGradient id="linear-gradient-8" x1="39.71" y1="31.57" x2="22.43" y2="5.15" gradientUnits="userSpaceOnUse"><stop offset="0" stop-color="#fff"/><stop offset="1" stop-color="#fff200"/></linearGradient><radialGradient id="radial-gradient-3" cx="-7349.34" cy="-5056.97" fx="-7349.34" fy="-5056.97" r="23.53" gradientTransform="translate(-7336.99 -5019.71) rotate(-180)" xlink:href="#radial-gradient"/><filter id="luminosity-noclip-9" x="4.3" y="43.63" width="30.58" height="11.94" color-interpolation-filters="sRGB" filterUnits="userSpaceOnUse"><feFlood flood-color="#fff" result="bg"/><feBlend in="SourceGraphic" in2="bg"/></filter><filter id="luminosity-noclip-10" x="4.3" y="-8228.28" width="30.58" height="32766" color-interpolation-filters="sRGB" filterUnits="userSpaceOnUse"><feFlood flood-color="#fff" result="bg"/><feBlend in="SourceGraphic" in2="bg"/></filter><mask id="mask-9" x="4.3" y="-8228.28" width="30.58" height="32766" maskUnits="userSpaceOnUse"/><linearGradient id="linear-gradient-9" x1="-7357.4" y1="-5085.46" x2="-7356.13" y2="-5059.46" gradientTransform="translate(-7336.99 -5019.71) rotate(-180)" xlink:href="#linear-gradient"/><mask id="mask-8" x="4.3" y="43.63" width="30.58" height="11.94" maskUnits="userSpaceOnUse"><g class="cls-37"><g class="cls-34"><path class="cls-11" d="m21.83,48.87c1.19-1.02,1.19-1.78,1.19-1.78,0,0-5.67-2.16-14.9.3-1.33-2.05-1.04-4.12-3.82-3.71,1.72,3.05,10.13,15.51,30.25,10.86.25-.46.33-.75.33-.75-3.9-6.35-10.92-5.76-13.04-4.91Z"/></g></g></mask><linearGradient id="linear-gradient-10" x1="-7357.4" y1="-5085.46" x2="-7356.13" y2="-5059.46" gradientTransform="translate(-7336.99 -5019.71) rotate(-180)" xlink:href="#linear-gradient-2"/><filter id="luminosity-noclip-11" x="7.49" y="48.7" width="27.39" height="12.29" color-interpolation-filters="sRGB" filterUnits="userSpaceOnUse"><feFlood flood-color="#fff" result="bg"/><feBlend in="SourceGraphic" in2="bg"/></filter><filter id="luminosity-noclip-12" x="7.49" y="-8228.28" width="27.39" height="32766" color-interpolation-filters="sRGB" filterUnits="userSpaceOnUse"><feFlood flood-color="#fff" result="bg"/><feBlend in="SourceGraphic" in2="bg"/></filter><mask id="mask-11" x="7.49" y="-8228.28" width="27.39" height="32766" maskUnits="userSpaceOnUse"/><linearGradient id="linear-gradient-11" x1="-7362.64" y1="-5078.45" x2="-7351.08" y2="-5062.25" gradientTransform="translate(-7336.99 -5019.71) rotate(-180)" xlink:href="#linear-gradient"/><mask id="mask-10" x="7.49" y="48.7" width="27.39" height="12.29" maskUnits="userSpaceOnUse"><g class="cls-1"><g class="cls-47"><path class="cls-6" d="m19.07,60.99c13.92-.35,15.81-7.2,15.81-7.2-1.88-3.06-4.48-4.51-6.91-5.09-4.04,6.96-16.47,7.84-20.47,2.51,2.98,4.14,6.95,7.52,11.58,9.79Z"/></g></g></mask><linearGradient id="linear-gradient-12" x1="-7362.64" y1="-5078.45" x2="-7351.08" y2="-5062.25" gradientTransform="translate(-7336.99 -5019.71) rotate(-180)" xlink:href="#linear-gradient-2"/><radialGradient id="radial-gradient-4" cx="-7393.71" cy="-5066.56" fx="-7393.71" fy="-5066.56" r="43.06" gradientTransform="translate(-7336.99 -5019.71) rotate(-180)" xlink:href="#radial-gradient-2"/><filter id="luminosity-noclip-13" x="10.33" y="43.42" width="51.12" height="18.77" color-interpolation-filters="sRGB" filterUnits="userSpaceOnUse"><feFlood flood-color="#fff" result="bg"/><feBlend in="SourceGraphic" in2="bg"/></filter><filter id="luminosity-noclip-14" x="10.33" y="-8228.28" width="51.12" height="32766" color-interpolation-filters="sRGB" filterUnits="userSpaceOnUse"><feFlood flood-color="#fff" result="bg"/><feBlend in="SourceGraphic" in2="bg"/></filter><mask id="mask-13" x="10.33" y="-8228.28" width="51.12" height="32766" maskUnits="userSpaceOnUse"/><linearGradient id="linear-gradient-13" x1="-7375.36" y1="-5096.96" x2="-7372.06" y2="-5060.64" gradientTransform="translate(-7336.99 -5019.71) rotate(-180)" xlink:href="#linear-gradient"/><mask id="mask-12" x="10.33" y="43.42" width="51.12" height="18.77" maskUnits="userSpaceOnUse"><g class="cls-27"><g class="cls-31"><path class="cls-23" d="m41.05,46.75c.12-1.22-.2-1.6-.2-1.6,0,0-6.86,2.41-10.8,7.37-.25-.95-.89-1.52-.89-1.52,0,0-11.26,7.2-18.83,3.61,2.83,2.94,6.23,5.33,10.02,6.98,13.07,3.47,26.81-8.86,41.09-16.43-9.04-2.87-15.32-2.09-20.4,1.59Z"/></g></g></mask><linearGradient id="linear-gradient-14" x1="-7375.36" y1="-5096.96" x2="-7372.06" y2="-5060.64" gradientTransform="translate(-7336.99 -5019.71) rotate(-180)" xlink:href="#linear-gradient-2"/><filter id="luminosity-noclip-15" x="10.33" y="43.42" width="51.12" height="12.56" color-interpolation-filters="sRGB" filterUnits="userSpaceOnUse"><feFlood flood-color="#fff" result="bg"/><feBlend in="SourceGraphic" in2="bg"/></filter><filter id="luminosity-noclip-16" x="10.33" y="-8228.28" width="51.12" height="32766" color-interpolation-filters="sRGB" filterUnits="userSpaceOnUse"><feFlood flood-color="#fff" result="bg"/><feBlend in="SourceGraphic" in2="bg"/></filter><mask id="mask-15" x="10.33" y="-8228.28" width="51.12" height="32766" maskUnits="userSpaceOnUse"/><linearGradient id="linear-gradient-15" x1="-7362.8" y1="-5054.19" x2="-7380.07" y2="-5080.61" gradientTransform="translate(-7336.99 -5019.71) rotate(-180)" xlink:href="#linear-gradient"/><mask id="mask-14" x="10.33" y="43.42" width="51.12" height="12.56" maskUnits="userSpaceOnUse"><g class="cls-33"><g class="cls-40"><path class="cls-5" d="m29.03,51.42s.64.57.89,1.52c3.94-4.95,10.8-7.37,10.8-7.37,0,0,.32.38.2,1.6,5.07-3.68,10.53-4.85,20.52-2.01-9.04-2.87-15.32-2.09-20.4,1.59.12-1.22-.2-1.6-.2-1.6,0,0-6.86,2.41-10.8,7.37-.25-.95-.89-1.52-.89-1.52,0,0-11.26,7.2-18.83,3.61,6.56,4.4,18.71-3.19,18.71-3.19Z"/></g></g></mask><linearGradient id="linear-gradient-16" x1="-7362.8" y1="-5054.19" x2="-7380.07" y2="-5080.61" gradientTransform="translate(-7336.99 -5019.71) rotate(-180)" xlink:href="#linear-gradient-8"/></defs><g class="cls-30"><g id="Layer_1"><path class="cls-10" d="m63.9,33.02c0-17.2-13.94-31.14-31.14-31.14S1.62,15.83,1.62,33.02s13.94,31.14,31.14,31.14,31.14-13.94,31.14-31.14Z"/><path class="cls-15" d="m46.45,5.06c-13.92.35-15.81,7.2-15.81,7.2,3.9,6.35,10.92,5.76,13.04,4.91-1.19,1.02-1.19,1.78-1.19,1.78,0,0,5.67,2.16,14.9-.3,1.44,2.22.97,4.47,4.57,3.57-2.78-7.52-8.38-13.67-15.52-17.17Z"/><g class="cls-44"><path class="cls-17" d="m43.68,17.17c-1.19,1.02-1.19,1.78-1.19,1.78,0,0,5.67,2.16,14.9-.3,1.33,2.05,1.04,4.12,3.82,3.71-1.72-3.05-10.13-15.51-30.25-10.86-.25.46-.33.75-.33.75,3.9,6.35,10.92,5.76,13.04,4.91Z"/></g><g class="cls-29"><path class="cls-12" d="m46.45,5.06c-13.92.35-15.81,7.2-15.81,7.2,1.88,3.06,4.48,4.51,6.91,5.09,4.04-6.96,16.47-7.84,20.47-2.51-2.98-4.14-6.95-7.52-11.58-9.79Z"/></g><path class="cls-13" d="m32.76,1.88c-12.89,0-23.95,7.84-28.68,19,9.04,2.87,15.32,2.09,20.4-1.59-.12,1.22.2,1.6.2,1.6,0,0,6.86-2.41,10.8-7.37.25.95.89,1.52.89,1.52,0,0,11.26-7.2,18.83-3.61-5.67-5.89-13.62-9.56-22.43-9.56Z"/><g class="cls-39"><path class="cls-22" d="m24.47,19.3c-.12,1.22.2,1.6.2,1.6,0,0,6.86-2.41,10.8-7.37.25.95.89,1.52.89,1.52,0,0,11.26-7.2,18.83-3.61-2.83-2.94-6.23-5.33-10.02-6.98C32.1.99,18.36,13.32,4.07,20.89c9.04,2.87,15.32,2.09,20.4-1.59Z"/></g><g class="cls-41"><path class="cls-25" d="m36.49,14.63s-.63-.57-.89-1.52c-3.94,4.95-10.8,7.37-10.8,7.37,0,0-.32-.38-.2-1.6-5.07,3.68-10.53,4.85-20.52,2.01,9.04,2.87,15.32,2.09,20.4-1.59-.12,1.22.2,1.6.2,1.6,0,0,6.86-2.41,10.8-7.37.25.95.89,1.52.89,1.52,0,0,11.26-7.2,18.83-3.61-6.56-4.4-18.71,3.19-18.71,3.19Z"/></g><path class="cls-20" d="m19.07,60.99c13.92-.35,15.81-7.2,15.81-7.2-3.9-6.35-10.92-5.76-13.04-4.91,1.19-1.02,1.19-1.78,1.19-1.78,0,0-5.67-2.16-14.9.3-1.44-2.22-.97-4.47-4.57-3.57,2.78,7.52,8.38,13.67,15.52,17.17Z"/><g class="cls-38"><path class="cls-16" d="m21.83,48.87c1.19-1.02,1.19-1.78,1.19-1.78,0,0-5.67-2.16-14.9.3-1.33-2.05-1.04-4.12-3.82-3.71,1.72,3.05,10.13,15.51,30.25,10.86.25-.46.33-.75.33-.75-3.9-6.35-10.92-5.76-13.04-4.91Z"/></g><g class="cls-2"><path class="cls-3" d="m19.07,60.99c13.92-.35,15.81-7.2,15.81-7.2-1.88-3.06-4.48-4.51-6.91-5.09-4.04,6.96-16.47,7.84-20.47,2.51,2.98,4.14,6.95,7.52,11.58,9.79Z"/></g><path class="cls-24" d="m32.76,64.16c12.89,0,23.95-7.84,28.68-19-9.04-2.87-15.32-2.09-20.4,1.59.12-1.22-.2-1.6-.2-1.6,0,0-6.86,2.41-10.8,7.37-.25-.95-.89-1.52-.89-1.52,0,0-11.26,7.2-18.83,3.61,5.66,5.89,13.62,9.56,22.43,9.56Z"/><g class="cls-35"><path class="cls-8" d="m41.05,46.75c.12-1.22-.2-1.6-.2-1.6,0,0-6.86,2.41-10.8,7.37-.25-.95-.89-1.52-.89-1.52,0,0-11.26,7.2-18.83,3.61,2.83,2.94,6.23,5.33,10.02,6.98,13.07,3.47,26.81-8.86,41.09-16.43-9.04-2.87-15.32-2.09-20.4,1.59Z"/></g><g class="cls-46"><path class="cls-21" d="m29.03,51.42s.64.57.89,1.52c3.94-4.95,10.8-7.37,10.8-7.37,0,0,.32.38.2,1.6,5.07-3.68,10.53-4.85,20.52-2.01-9.04-2.87-15.32-2.09-20.4,1.59.12-1.22-.2-1.6-.2-1.6,0,0-6.86,2.41-10.8,7.37-.25-.95-.89-1.52-.89-1.52,0,0-11.26,7.2-18.83,3.61,6.56,4.4,18.71-3.19,18.71-3.19Z"/></g><path class="cls-7" d="m22.2,33.43c-.04,4.04-2.52,8.07-8.01,8.07s-8.03-3.95-8.03-8.05,2.63-8.23,8.03-8.23,8.05,4.13,8.01,8.21Zm-13.13.07c.07,2.56,1.45,5.31,5.13,5.31s5.06-2.77,5.11-5.33c.04-2.63-1.43-5.58-5.11-5.58s-5.2,2.97-5.13,5.6Z"/><path class="cls-7" d="m41.18,29.84l-5.08,6.78h-.58l-4.97-6.8v11.35h-2.94v-15.61h3.39l4.88,6.71,4.88-6.71h3.37v15.61h-2.94v-11.33Z"/><path class="cls-7" d="m56.81,41.17v-15.61h2.92v15.61h-2.92Z"/></g></g></svg>